<svg id="Logos" xmlns="http://www.w3.org/2000/svg" viewBox="0 0 41.031 22.666"><title>ALH_Signet_RGB</title><path d="M23.451,22.11c-7.208-.851-11.087-6.475-12.794-10.93-.052-.137-.113-.3-.525-.3H.306A.332.332,0,0,0,.06,11.4,25.728,25.728,0,0,0,23.449,22.546C23.754,22.5,23.763,22.157,23.451,22.11Z" fill="#be0d3e"/><circle cx="21.88" cy="5.43" r="5.43" fill="#be0d3e"/><path d="M21.233,19.823c6.434-1.889,9.193-7.3,10.124-12.413a.323.323,0,0,1,.317-.241H40.7c.253,0,.343.259.324.475a6.033,6.033,0,0,1-.716,2.08C39.125,12.29,33.031,21.011,23.5,20.686a6.07,6.07,0,0,1-2.276-.42C21.111,20.2,20.978,19.9,21.233,19.823Z" fill="#be0d3e"/></svg>