<svg xmlns="http://www.w3.org/2000/svg" width="269" height="72" viewBox="0 0 269 72">
  <g fill="none" fill-rule="evenodd">
    <path fill="#6983A1" d="M-2.27373675e-13,37.3167667 L-2.27373675e-13,12.4201 C-2.27373675e-13,4.06132222 3.7040873,-0.000427777778 14.5046508,-0.000427777778 L56.4323571,-0.000427777778 C65.7278016,-0.000427777778 68.648373,3.30415556 68.648373,11.3506556 L68.648373,21.6601 C68.648373,30.7952944 60.8153492,33.3619611 52.9994048,33.3619611 L13.3624683,33.3619611 C4.6455873,33.3619611 -2.27373675e-13,37.3167667 -2.27373675e-13,37.3167667"/>
    <path fill="#D3DB2B" d="M68.647946,34.54605 L68.647946,59.4790778 C68.647946,67.8421333 64.9395889,71.9038833 54.1432952,71.9038833 L12.2155889,71.9038833 C2.91800952,71.9038833 -0.000426984128,68.5993 -0.000426984128,60.5506611 L-0.000426984128,50.2048556 C-0.000426984128,41.0653833 7.8304619,38.4965778 15.6464063,38.4965778 L55.2876127,38.4965778 C63.9980889,38.4965778 68.647946,34.54605 68.647946,34.54605"/>
    <path fill="#B4C1D0" d="M174.030404 9.07359444L174.030404 10.1965111 167.734523 10.1965111C167.734523 11.4926778 168.528713 12.4380667 169.937761 12.4380667 171.041515 12.4380667 171.57738 12.1300667 172.213587 11.4926778L173.744325 12.9792056C172.715293 14.0037333 171.733229 14.5619833 169.918547 14.5619833 167.544515 14.5619833 165.26442 13.4797056 165.26442 9.40298333 165.26442 6.11765 167.042809 4.26109444 169.645277 4.26109444 172.450563 4.26109444 174.030404 6.30801111 174.030404 9.07359444zM167.734523 8.47470556L171.558166 8.47470556C171.541087 8.02981667 171.485579 7.75817778 171.32546 7.39242778 171.054325 6.79353889 170.499245 6.34865 169.645277 6.34865 168.799848 6.34865 168.238364 6.79353889 167.965094 7.39242778 167.81138 7.75817778 167.753737 8.02981667 167.734523 8.47470556zM163.095127 14.4469111L160.58446 14.4469111 160.58446 8.29974444C160.58446 6.96721667 159.736897 6.52232778 158.940571 6.52232778 158.148516 6.52232778 157.322302 6.98432778 157.322302 8.29974444L157.322302 14.4469111 154.8095 14.4469111 154.8095.683161111 157.322302.683161111 157.322302 5.30316111C157.996937 4.60588333 158.8445 4.25938333 159.736897 4.25938333 161.93373 4.25938333 163.095127 5.80793889 163.095127 7.93613333L163.095127 14.4469111zM152.934613 13.1915972C152.046486 14.119875 151.00251 14.562625 149.614811 14.562625 147.601581 14.562625 145.110129 13.4803472 145.110129 9.403625 145.110129 5.32476389 147.601581 4.25959722 149.614811 4.25959722 151.00251 4.25959722 152.046486 4.68523611 152.934613 5.61351389L151.235216 7.31393056C150.71216 6.75354167 150.270232 6.52254167 149.614811 6.52254167 149.012763 6.52254167 148.551621 6.73429167 148.182279 7.17918056 147.795859 7.66256944 147.625065 8.33845833 147.625065 9.403625 147.625065 10.4645139 147.795859 11.1617917 148.182279 11.6451806 148.551621 12.0900694 149.012763 12.2996806 149.614811 12.2996806 150.270232 12.2996806 150.71216 12.0708194 151.235216 11.5082917L152.934613 13.1915972zM143.512994 11.2772917C143.512994 13.5017361 141.617185 14.562625 139.241018 14.562625 137.656907 14.562625 136.228645 14.3915139 134.958367 13.1124583L136.595852 11.4719306C137.424201 12.2996806 138.50874 12.4173194 139.283717 12.4173194 140.150494 12.4173194 141.059971 12.1285694 141.059971 11.3735417 141.059971 10.8709028 140.788836 10.5244028 139.994645 10.4452639L138.410534 10.2912639C136.595852 10.1180139 135.477153 9.32448611 135.477153 7.47006944 135.477153 5.38251389 137.31105 4.25959722 139.360574 4.25959722 140.921201 4.25959722 142.236312 4.52909722 143.197026 5.44026389L141.655613 7.00593056C141.079185 6.48404167 140.186788 6.32790278 139.317875 6.32790278 138.314463 6.32790278 137.885344 6.79418056 137.885344 7.29681944 137.885344 7.66256944 138.041193 8.08606944 138.931455 8.16520833L140.515566 8.31920833C142.507447 8.51384722 143.512994 9.576875 143.512994 11.2772917zM133.291848 14.4469111L131.923364 14.4469111C129.871706 14.4469111 129.004928 12.9967444 129.004928 11.5679667L129.004928 6.58007778 127.943872 6.58007778 127.943872 4.66577222 129.004928 4.66577222 129.004928 1.69057778 131.51346 1.69057778 131.51346 4.66577222 133.291848 4.66577222 133.291848 6.58007778 131.51346 6.58007778 131.51346 11.4118278C131.51346 11.9957444 131.786729 12.3187167 132.384507 12.3187167L133.291848 12.3187167 133.291848 14.4469111zM125.664204 14.4469111L123.209045 14.4469111 123.209045 13.5207722C122.55149 14.2159111 121.624934 14.5624111 120.700513 14.5624111 119.697101 14.5624111 118.881561 14.2330222 118.322212 13.6747722 117.515212 12.8619944 117.29745 11.9166056 117.29745 10.8150778L117.29745 4.37488333 119.808117 4.37488333 119.808117 10.4643C119.808117 11.8396056 120.683434 12.2994667 121.47122 12.2994667 122.26541 12.2994667 123.151402 11.8396056 123.151402 10.4643L123.151402 4.37488333 125.664204 4.37488333 125.664204 14.4469111zM115.129438 9.07359444L115.129438 10.1965111 108.835692 10.1965111C108.835692 11.4926778 109.625613 12.4380667 111.036795 12.4380667 112.136279 12.4380667 112.676414 12.1300667 113.314756 11.4926778L114.841224 12.9792056C113.816462 14.0037333 112.834398 14.5619833 111.015446 14.5619833 108.643549 14.5619833 106.363454 13.4797056 106.363454 9.40298333 106.363454 6.11765 108.137573 4.26109444 110.744311 4.26109444 113.547462 4.26109444 115.129438 6.30801111 115.129438 9.07359444zM108.835692 8.47470556L112.6572 8.47470556C112.640121 8.02981667 112.580343 7.75817778 112.426629 7.39242778 112.153359 6.79353889 111.596144 6.34865 110.744311 6.34865 109.894613 6.34865 109.337398 6.79353889 109.068398 7.39242778 108.912549 7.75817778 108.857041 8.02981667 108.835692 8.47470556zM102.889084 1.99601111C104.439037 3.54456667 104.283187 5.43962222 104.283187 7.50792778 104.283187 9.57623333 104.439037 11.5867889 102.889084 13.1332056 101.983878 14.0422333 100.690116 14.4464833 99.2639889 14.4464833L94.2960286 14.4464833 94.2960286.682733333 99.2639889.682733333C100.690116.682733333 101.983878 1.08698333 102.889084 1.99601111zM101.018894 11.2017889C101.522735 10.58365 101.597457 9.59762222 101.597457 7.50792778 101.597457 5.42037222 101.522735 4.54770556 101.018894 3.93170556 100.553481 3.37131667 99.9364889 3.07828889 99.0120683 3.07828889L96.9817587 3.07828889 96.9817587 12.0530667 99.0120683 12.0530667C99.9364889 12.0530667 100.553481 11.7621778 101.018894 11.2017889zM265.6913 23.2845861L268.127244 23.2845861 268.127244 32.9930028C268.127244 35.4056694 266.406498 37.1702528 263.703689 37.1702528 262.158006 37.1702528 261.092681 36.857975 260.05084 35.8505583L261.617871 34.2699194C262.177221 34.8089194 262.734435 35.0420583 263.588403 35.0420583 265.091387 35.0420583 265.616578 33.9768917 265.616578 32.9523639L265.616578 31.9278361C264.956887 32.6636139 264.205395 32.9331139 263.216927 32.9331139 262.230594 32.9331139 261.385165 32.603725 260.821546 32.045475 259.875776 31.0958083 259.798919 29.7996417 259.798919 28.0393361 259.798919 26.2811694 259.875776 25.0042528 260.821546 24.0545861 261.385165 23.4963361 262.254078 23.1690861 263.238276 23.1690861 264.301467 23.1690861 264.993181 23.459975 265.6913 24.2321139L265.6913 23.2845861zM263.95134 30.6723083C265.439379 30.6723083 265.616578 29.3740028 265.616578 28.0393361 265.616578 26.7068083 265.439379 25.4298917 263.95134 25.4298917 262.46757 25.4298917 262.309586 26.7068083 262.309586 28.0393361 262.309586 29.3740028 262.46757 30.6723083 263.95134 30.6723083zM257.496621 33.3574694L254.992359 33.3574694 254.992359 27.2659139C254.992359 25.8948861 254.123446 25.4307472 253.327121 25.4307472 252.539335 25.4307472 251.646938 25.8948861 251.646938 27.2659139L251.646938 33.3574694 249.138406 33.3574694 249.138406 23.2854417 251.59143 23.2854417 251.59143 24.2094417C252.248986 23.5143028 253.173406 23.1699417 254.102097 23.1699417 255.10551 23.1699417 255.918914 23.4950528 256.480398 24.0554417 257.291668 24.8682194 257.496621 25.8178861 257.496621 26.9194139L257.496621 33.3574694zM246.519713 33.3574694L244.068824 33.3574694 244.068824 32.4291917C243.406998 33.1286083 242.478308 33.4751083 241.553887 33.4751083 240.54834 33.4751083 239.734935 33.1457194 239.179856 32.5853306 238.366451 31.7704139 238.155094 30.8293028 238.155094 29.7234972L238.155094 23.2854417 240.663625 23.2854417 240.663625 29.3727194C240.663625 30.748025 241.534673 31.2121639 242.326729 31.2121639 243.118784 31.2121639 244.006911 30.748025 244.006911 29.3727194L244.006911 23.2854417 246.519713 23.2854417 246.519713 33.3574694zM227.848551 27.9822278L227.848551 29.1051444 221.5484 29.1051444C221.5484 30.3991722 222.344725 31.3445611 223.755908 31.3445611 224.851122 31.3445611 225.397662 31.0408389 226.031733 30.3991722L227.556067 31.8899778C226.535575 32.9145056 225.547106 33.4748944 223.732424 33.4748944 221.358392 33.4748944 219.076162 32.3947556 219.076162 28.3094778 219.076162 25.0262833 220.856686 23.1697278 223.465559 23.1697278 226.266575 23.1697278 227.848551 25.2187833 227.848551 27.9822278zM221.5484 27.3833389L225.376313 27.3833389C225.357098 26.93845 225.299456 26.66895 225.143606 26.2989222 224.870337 25.7021722 224.315257 25.2551444 223.465559 25.2551444 222.613725 25.2551444 222.052241 25.7021722 221.785376 26.2989222 221.627392 26.66895 221.569749 26.93845 221.5484 27.3833389zM216.90815 33.3574694L214.397483 33.3574694 214.397483 27.2103028C214.397483 25.8734972 213.552055 25.4307472 212.757864 25.4307472 211.965809 25.4307472 211.135325 25.8948861 211.135325 27.2103028L211.135325 33.3574694 208.624658 33.3574694 208.624658 19.5915806 211.135325 19.5915806 211.135325 24.2094417C211.80996 23.5143028 212.661793 23.1699417 213.552055 23.1699417 215.751023 23.1699417 216.90815 24.7163583 216.90815 26.8424139L216.90815 33.3574694zM206.753827 32.1010861C205.8657 33.0293639 204.823859 33.4742528 203.43189 33.4742528 201.42293 33.4742528 198.933613 32.3941139 198.933613 28.310975 198.933613 24.2321139 201.42293 23.1690861 203.43189 23.1690861 204.823859 23.1690861 205.8657 23.5968639 206.753827 24.5230028L205.056565 26.2234194C204.531375 25.6630306 204.089446 25.4298917 203.43189 25.4298917 202.831978 25.4298917 202.3687 25.6437806 202.001494 26.0865306 201.617208 26.5720583 201.442144 27.2479472 201.442144 28.310975 201.442144 29.3740028 201.617208 30.0712806 202.001494 30.5546694 202.3687 30.9974194 202.831978 31.2113083 203.43189 31.2113083 204.089446 31.2113083 204.531375 30.9803083 205.056565 30.4199194L206.753827 32.1010861zM194.164627 33.3561861L194.164627 23.2841583 196.673159 23.2841583 196.673159 33.3561861 194.164627 33.3561861zM194.124063 21.5644917L194.124063 19.5132972 196.690238 19.5132972 196.690238 21.5644917 194.124063 21.5644917zM192.054258 30.1857111C192.054258 32.4101556 190.164853 33.4753222 187.786552 33.4753222 186.204575 33.4753222 184.776313 33.2999333 183.501766 32.0230167L185.145655 30.38035C185.976139 31.2102389 187.056409 31.3278778 187.827115 31.3278778 188.698163 31.3278778 189.605504 31.0391278 189.605504 30.2862389 189.605504 29.7814611 189.336504 29.4328222 188.542313 29.3558222L186.958202 29.2018222C185.145655 29.0285722 184.024821 28.2350444 184.024821 26.3784889 184.024821 24.2909333 185.856583 23.1701556 187.903972 23.1701556 189.471004 23.1701556 190.77971 23.4396556 191.746829 24.3465444L190.203282 25.9122111C189.624718 25.3924611 188.736591 25.2384611 187.865544 25.2384611 186.862131 25.2384611 186.437282 25.7026 186.437282 26.2052389 186.437282 26.5709889 186.588861 26.9966278 187.481258 27.0736278L189.069639 27.2276278C191.055115 27.4222667 192.054258 28.4874333 192.054258 30.1857111zM183.469742 23.68135L181.76821 25.7453778C181.497075 25.5421833 181.202456 25.4309611 180.760528 25.4309611 179.989821 25.4309611 179.137988 26.0084611 179.137988 27.2875167L179.137988 33.3576833 176.627321 33.3576833 176.627321 23.2835167 179.080345 23.2835167 179.080345 24.2502944C179.564972 23.6706556 180.529956 23.1701556 181.608091 23.1701556 182.353179 23.1701556 182.929607 23.3134611 183.469742 23.68135zM236.974056 23.68135L235.270389 25.7453778C234.997119 25.5421833 234.704635 25.4309611 234.264841 25.4309611 233.492 25.4309611 232.642302 26.0084611 232.642302 27.2875167L232.642302 33.3576833 230.131635 33.3576833 230.131635 23.2835167 232.586794 23.2835167 232.586794 24.2502944C233.071421 23.6706556 234.032135 23.1701556 235.112405 23.1701556 235.857492 23.1701556 236.436056 23.3134611 236.974056 23.68135zM174.339967 27.9822278L174.339967 29.1051444 168.041952 29.1051444C168.041952 30.3991722 168.838277 31.3445611 170.247325 31.3445611 171.346809 31.3445611 171.889079 31.0408389 172.52315 30.3991722L174.053888 31.8899778C173.026991 32.9145056 172.038523 33.4748944 170.22811 33.4748944 167.851944 33.4748944 165.573983 32.3947556 165.573983 28.3094778 165.573983 25.0262833 167.352372 23.1697278 169.95484 23.1697278 172.760126 23.1697278 174.339967 25.2187833 174.339967 27.9822278zM168.041952 27.3833389L171.869864 27.3833389C171.85065 26.93845 171.793007 26.66895 171.637158 26.2989222 171.363888 25.7021722 170.804539 25.2551444 169.95484 25.2551444 169.105142 25.2551444 168.547928 25.7021722 168.274658 26.2989222 168.123079 26.66895 168.065436 26.93845 168.041952 27.3833389zM164.685002 23.2845861L160.99586 33.3566139 159.025328 33.3566139 155.314836 23.2845861 157.964272 23.2845861 160.011661 29.5087528 162.037701 23.2845861 164.685002 23.2845861zM153.984353 33.3574694L151.475821 33.3574694 151.475821 27.2659139C151.475821 25.8948861 150.602639 25.4307472 149.810583 25.4307472 149.020663 25.4307472 148.132536 25.8948861 148.132536 27.2659139L148.132536 33.3574694 145.621869 33.3574694 145.621869 23.2854417 148.070623 23.2854417 148.070623 24.2094417C148.730313 23.5143028 149.656869 23.1699417 150.58556 23.1699417 151.591107 23.1699417 152.398107 23.4950528 152.959591 24.0554417 153.770861 24.8682194 153.984353 25.8178861 153.984353 26.9194139L153.984353 33.3574694zM143.331526 27.9822278L143.331526 29.1051444 137.035645 29.1051444C137.035645 30.3991722 137.827701 31.3445611 139.236748 31.3445611 140.344772 31.3445611 140.882772 31.0408389 141.516844 30.3991722L143.049717 31.8899778C142.020685 32.9145056 141.036487 33.4748944 139.221804 33.4748944 136.843502 33.4748944 134.565542 32.3947556 134.565542 28.3094778 134.565542 25.0262833 136.343931 23.1697278 138.948534 23.1697278 141.74955 23.1697278 143.331526 25.2187833 143.331526 27.9822278zM137.035645 27.3833389L140.863558 27.3833389C140.842209 26.93845 140.784566 26.66895 140.630852 26.2989222 140.359717 25.7021722 139.798233 25.2551444 138.948534 25.2551444 138.098836 25.2551444 137.537352 25.7021722 137.270487 26.2989222 137.114637 26.66895 137.056994 26.93845 137.035645 27.3833389zM132.887281 33.3574694L131.512392 33.3574694C129.465003 33.3574694 128.598225 31.9073028 128.598225 30.4763861L128.598225 25.4906361 127.535035 25.4906361 127.535035 23.5763306 128.598225 23.5763306 128.598225 20.5947194 131.108892 20.5947194 131.108892 23.5763306 132.887281 23.5763306 132.887281 25.4906361 131.108892 25.4906361 131.108892 30.3223861C131.108892 30.9063028 131.377892 31.229275 131.977805 31.229275L132.887281 31.229275 132.887281 33.3574694zM125.373428 33.3574694L122.862761 33.3574694 122.862761 27.2659139C122.862761 25.8948861 121.991713 25.4307472 121.197523 25.4307472 120.407602 25.4307472 119.519475 25.8948861 119.519475 27.2659139L119.519475 33.3574694 117.008809 33.3574694 117.008809 23.2854417 119.457563 23.2854417 119.457563 24.2094417C120.119388 23.5143028 121.041674 23.1699417 121.970364 23.1699417 122.975912 23.1699417 123.789317 23.4950528 124.344396 24.0554417 125.157801 24.8682194 125.373428 25.8178861 125.373428 26.9194139L125.373428 33.3574694zM114.721668 27.9822278L114.721668 29.1051444 108.425787 29.1051444C108.425787 30.3991722 109.215708 31.3445611 110.629025 31.3445611 111.72851 31.3445611 112.268644 31.0408389 112.904851 30.3991722L114.429184 31.8899778C113.408692 32.9145056 112.422359 33.4748944 110.609811 33.4748944 108.233644 33.4748944 105.953549 32.3947556 105.953549 28.3094778 105.953549 25.0262833 107.727668 23.1697278 110.336541 23.1697278 113.135422 23.1697278 114.721668 25.2187833 114.721668 27.9822278zM108.425787 27.3833389L112.247295 27.3833389C112.230216 26.93845 112.170438 26.66895 112.018859 26.2989222 111.745589 25.7021722 111.188375 25.2551444 110.336541 25.2551444 109.486843 25.2551444 108.927494 25.7021722 108.656359 26.2989222 108.502644 26.66895 108.445002 26.93845 108.425787 27.3833389zM101.635032 27.4214111L104.705048 33.3568278 101.596603 33.3568278 98.9130079 27.8663 96.9809048 27.8663 96.9809048 33.3568278 94.2951746 33.3568278 94.2951746 19.5909389 99.6837143 19.5909389C102.48473 19.5909389 104.147833 21.5031056 104.147833 23.8066889 104.147833 25.7402444 102.969357 26.9380222 101.635032 27.4214111zM99.5086508 25.6247444C100.691397 25.6247444 101.459968 24.8697167 101.459968 23.8066889 101.459968 22.7436611 100.691397 21.9864944 99.5086508 21.9864944L96.9809048 21.9864944 96.9809048 25.6247444 99.5086508 25.6247444zM102.081348 57L103.565151 57 103.565151 70.8875321 102.081348 70.8875321 102.081348 64.5480393 95.485953 64.5480393 95.485953 70.8875321 94 70.8875321 94 57 95.485953 57 95.485953 63.2233691 102.081348 63.2233691 102.081348 57zM107.934842 66.4539729C107.934842 68.5592523 108.930495 69.7699492 110.764819 69.7699492 111.878746 69.7699492 112.521727 69.4387816 113.285133 68.6775264L114.242078 69.5161974C113.265779 70.4924965 112.366896 71 110.726111 71 108.188593 71 106.530605 69.4774895 106.530605 66.0840975 106.530605 62.9831651 108.033762 61.168195 110.472359 61.168195 112.951815 61.168195 114.416263 62.9616608 114.416263 65.8109918L114.416263 66.4539729 107.934842 66.4539729zM112.719567 63.8024822C112.347542 62.9229529 111.487366 62.3573875 110.472359 62.3573875 109.457352 62.3573875 108.599327 62.9229529 108.229452 63.8024822 108.014408 64.3271892 107.9757 64.6174984 107.934842 65.4002581L113.009877 65.4002581C112.971169 64.6174984 112.932461 64.3271892 112.719567 63.8024822zM120.842634 70.9944089C119.223354 70.9944089 117.954595 70.6202326 116.90088 69.6052256L117.836321 68.6719352C118.597576 69.4718984 119.631937 69.783712 120.82328 69.783712 122.403852 69.783712 123.380151 69.2181466 123.380151 68.0848655 123.380151 67.2483449 122.892002 66.7773989 121.780225 66.6806292L120.197502 66.5451515C118.32447 66.3881695 117.328817 65.5494985 117.328817 63.9689262 117.328817 62.2141683 118.81262 61.1626039 120.861988 61.1626039 122.229667 61.1626039 123.457567 61.491621 124.317743 62.1948144L123.399505 63.1130516C122.715666 62.5840437 121.838287 62.3496459 120.842634 62.3496459 119.438398 62.3496459 118.694346 62.9560696 118.694346 63.9323687 118.694346 64.7516858 119.163141 65.2376849 120.373838 65.3344546L121.915703 65.4720827C123.595195 65.6290647 124.74568 66.2720458 124.74568 68.067662 124.74568 69.92134 123.165108 70.9944089 120.842634 70.9944089zM130.844109 70.9860221C129.224828 70.9860221 127.95607 70.6139963 126.902355 69.5989893L127.837795 68.6635485C128.599051 69.4635117 129.635562 69.7774757 130.824755 69.7774757 132.407477 69.7774757 133.381626 69.2119104 133.381626 68.0786292 133.381626 67.2421087 132.893476 66.7711626 131.7817 66.6743929L130.201127 66.5389153C128.325945 66.3819332 127.330292 65.5432622 127.330292 63.9626899 127.330292 62.207932 128.814095 61.1563676 130.863463 61.1563676 132.231141 61.1563676 133.461192 61.4853847 134.319217 62.1885781L133.40098 63.1046649C132.719291 62.5778075 131.839762 62.3434097 130.844109 62.3434097 129.439872 62.3434097 128.69582 62.9498333 128.69582 63.9261324 128.69582 64.7454495 129.164616 65.2314486 130.375313 65.3282184L131.919328 65.4658464C133.59667 65.620678 134.747155 66.2658096 134.747155 68.0614257 134.747155 69.9151038 133.166582 70.9860221 130.844109 70.9860221zM138.506121 66.4352641C138.506121 68.5405434 139.501774 69.7490899 141.336098 69.7490899 142.447875 69.7490899 143.093006 69.4200728 143.856412 68.6566671L144.813357 69.4974886C143.837058 70.4716373 142.938175 70.9791407 141.29739 70.9791407 138.759873 70.9791407 137.095433 69.4566303 137.095433 66.0632383 137.095433 62.9623059 138.602891 61.1473358 141.045789 61.1473358 143.523094 61.1473358 144.987543 62.9429519 144.987543 65.792283L144.987543 66.4352641 138.506121 66.4352641zM143.288696 63.7837734C142.918821 62.904244 142.058646 62.3386787 141.045789 62.3386787 140.028632 62.3386787 139.170607 62.904244 138.798581 63.7837734 138.583537 64.3084804 138.544829 64.5987896 138.506121 65.3815492L143.581156 65.3815492C143.542448 64.5987896 143.50374 64.3084804 143.288696 63.7837734zM154.148196 70.8557056L154.148196 64.9463005C154.148196 63.247454 153.229959 62.3894291 151.787014 62.3894291 150.339769 62.3894291 149.404329 63.2689584 149.404329 64.9463005L149.404329 70.8557056 148.000092 70.8557056 148.000092 61.2582984 149.404329 61.2582984 149.404329 62.3120133C150.088168 61.5314041 151.025759 61.1400243 152.098828 61.1400243 153.133189 61.1400243 153.97186 61.4539883 154.556779 62.0389076 155.240619 62.7033931 155.552432 63.5979755 155.552432 64.7119027L155.552432 70.8557056 154.148196 70.8557056z"/>
  </g>
</svg>
