<svg id="Gruppe_162" data-name="Gruppe 162" xmlns="http://www.w3.org/2000/svg" width="100" height="133" viewBox="0 0 100 133">
  <path id="path22" d="M40.243,125.9a2.183,2.183,0,0,1-.443-1.06.608.608,0,0,1,.636-.627.529.529,0,0,1,.525.572A1.284,1.284,0,0,1,40.243,125.9Zm.87,4.9a.952.952,0,0,1-.718.293,1.252,1.252,0,0,1-1.146-1.366,1.424,1.424,0,0,1,.5-1.033Zm1.327,2.036h2.182l-1.091-1.673.084-.07a6.787,6.787,0,0,0,1.063-1.033l-1.091-1.492a13.569,13.569,0,0,1-1.036,1.144l-1.382-2.163A3.933,3.933,0,0,0,42.84,124.7a2.181,2.181,0,0,0-2.389-2.093,2.279,2.279,0,0,0-2.432,2.3,4.582,4.582,0,0,0,.732,2.176,3.357,3.357,0,0,0-1.505,2.778,2.981,2.981,0,0,0,2.888,3.11,3.041,3.041,0,0,0,1.907-.753Zm5.868-10.517h2.059v8.564h2.155v1.952H48.308Zm7.442,8.857c-.689,0-.718-1.45-.718-1.9,0-.4.041-1.883.691-1.883s.705,1.492.705,1.883S56.373,131.172,55.75,131.172Zm.539,1.659h1.948v-7.043H56.289v.865h-.027a1.409,1.409,0,0,0-1.312-1c-1.63,0-1.866,2.441-1.866,3.653,0,1.13.318,3.67,1.893,3.67a1.438,1.438,0,0,0,1.286-.935h.027Zm4.847-7.043v1.087h.027a1.8,1.8,0,0,1,1.616-1.226c1.437,0,1.313,1.617,1.313,2.635v4.547H62.145v-3.863c0-.363.138-1.338-.484-1.338-.443,0-.525.459-.525.808v4.392H59.188v-7.043Zm6.988,7.043h1.948V121.575H68.124v5.078H68.1a1.409,1.409,0,0,0-1.314-1c-1.63,0-1.864,2.441-1.864,3.653,0,1.13.318,3.67,1.893,3.67a1.439,1.439,0,0,0,1.286-.935h.027Zm-.539-1.659c-.691,0-.718-1.45-.718-1.9,0-.4.041-1.883.691-1.883s.7,1.492.7,1.883S68.206,131.172,67.584,131.172Zm7.733-4.924-.786,1.437a1.352,1.352,0,0,0-.939-.46.478.478,0,0,0-.526.515c.028.823,2.225.656,2.225,2.762a2.225,2.225,0,0,1-2.238,2.47,3.378,3.378,0,0,1-2.1-.809l.857-1.394a1.478,1.478,0,0,0,.966.46.559.559,0,0,0,.566-.587c.028-.934-2.223-.7-2.223-2.928a2.121,2.121,0,0,1,2.334-2.064A2.984,2.984,0,0,1,75.317,126.249Zm4.45,4.672a1.021,1.021,0,0,1-.595.21c-.982,0-1.132-1.13-1.132-1.884,0-.725.206-1.884,1.161-1.884a.737.737,0,0,1,.566.224v-1.729a2.311,2.311,0,0,0-.968-.209c-2.018,0-2.707,1.939-2.707,3.71,0,1.6.663,3.613,2.555,3.613a2.583,2.583,0,0,0,1.119-.251Zm.8-9.346h1.948v5.3h.027a1.8,1.8,0,0,1,1.616-1.226c1.438,0,1.313,1.617,1.313,2.635v4.547H83.523v-3.863c0-.363.139-1.338-.484-1.338-.441,0-.523.459-.523.808v4.392H80.567V121.575Zm8.4,9.6c-.691,0-.718-1.45-.718-1.9,0-.4.041-1.883.689-1.883.664,0,.705,1.492.705,1.883S89.585,131.172,88.964,131.172Zm.539,1.659h1.948v-7.043H89.5v.865h-.028a1.406,1.406,0,0,0-1.312-1c-1.63,0-1.864,2.441-1.864,3.653,0,1.13.318,3.67,1.893,3.67a1.436,1.436,0,0,0,1.284-.935H89.5Zm2.677-7.043H92.9v-1.981c0-1.324.262-2.37,2-2.37a2.5,2.5,0,0,1,.843.167v1.9a.636.636,0,0,0-.346-.111c-.621,0-.552.711-.552,1.144v1.255h.9v1.619h-.9v5.425H92.9v-5.425H92.18Zm4.956-1.952v1.952h-.677v1.619h.677v5.425h1.95v-5.425h.8v-1.619h-.8v-1.952Zm-97-17.348H2.192V117H.133Zm3.273-.74V117H5.353V112.61c0-.348.084-.809.525-.809.621,0,.484.977.484,1.34V117H8.31v-4.547c0-1.02.125-2.637-1.312-2.637a1.8,1.8,0,0,0-1.616,1.228H5.353v-5.3H3.406ZM9.26,109.96h1.948v.851h.028a1.986,1.986,0,0,1,1.588-1.116v1.912a2.04,2.04,0,0,0-.3-.028c-1.3,0-1.312.865-1.312,1.91V117H9.26V109.96Zm7.543,2.832H15.38v-.209c0-.447.123-1.255.718-1.255s.705.835.705,1.3Zm1.686.406c.109-2.22-1.078-3.377-2.362-3.377-2.032,0-2.639,2.12-2.639,3.808,0,1.743.7,3.514,2.68,3.514,1.423,0,2.045-1.018,2.211-2.315H16.719c0,.418-.123.809-.622.809-.746,0-.718-1.114-.732-1.632h3.08l.043-.808Zm4.469-6.71H27.1v1.952H25.015v2.287h1.839v1.952H25.015v2.372h2.114V117H22.958Zm5.259,3.472,1.741,3.249-2,3.8h2L31,115.065,32.017,117h2.059l-2.059-3.8L33.8,109.96H31.781L31,111.466l-.209-.432-.552-1.074Zm9.143,5.385c.689,0,.7-1.451.7-1.9,0-.4-.055-1.884-.69-1.884-.664,0-.693,1.493-.693,1.884S36.725,115.345,37.361,115.345Zm-.539-5.385v.865h.028a1.4,1.4,0,0,1,1.3-1c1.643,0,1.864,2.442,1.864,3.656,0,1.128-.289,3.667-1.879,3.667a1.4,1.4,0,0,1-1.284-.934h-.028v4.269H34.873V109.96Zm7.222,2.832H42.621v-.209c0-.447.123-1.255.718-1.255s.7.835.7,1.3Zm1.686.406c.111-2.22-1.077-3.377-2.363-3.377-2.03,0-2.638,2.12-2.638,3.808,0,1.743.7,3.514,2.68,3.514,1.422,0,2.043-1.018,2.209-2.315H43.961c0,.418-.125.809-.621.809-.746,0-.718-1.114-.732-1.632h3.08l.041-.808Zm.84-3.237h1.947v.851h.028a1.986,1.986,0,0,1,1.589-1.116v1.912a2.062,2.062,0,0,0-.305-.028c-1.3,0-1.312.865-1.312,1.91V117H46.569V109.96Zm4.959-1.953v1.953h-.677v1.619h.677V117h1.948v-5.426h.8V109.96h-.8v-1.953Zm6.834,4.785v-.168c0-.46-.1-1.3-.7-1.3s-.72.808-.72,1.255v.209Zm1.686.406-.041.808h-3.08c.013.517-.014,1.632.732,1.632.5,0,.621-.392.621-.809h1.657c-.166,1.3-.787,2.315-2.211,2.315-1.975,0-2.68-1.771-2.68-3.514,0-1.688.609-3.808,2.639-3.808,1.284,0,2.473,1.157,2.363,3.377Zm2.786-3.237H60.886V117h1.948V112.61c0-.348.084-.809.525-.809.621,0,.484.977.484,1.34V117h1.948v-4.547c0-1.02.123-2.637-1.312-2.637a1.8,1.8,0,0,0-1.616,1.228h-.028V109.96Zm7.069,0h.718v-1.98c0-1.325.263-2.371,2-2.371a2.514,2.514,0,0,1,.843.166v1.9a.645.645,0,0,0-.346-.112c-.621,0-.552.711-.552,1.144v1.255h.9v1.619h-.9V117H70.62v-5.426H69.9Zm6.393-2.149a1.029,1.029,0,1,0-1.036,1.019A1.035,1.035,0,0,0,76.3,107.811Zm2.875,0a1.03,1.03,0,1,0-1.037,1.019A1.037,1.037,0,0,0,79.171,107.811Zm-4.918,2.149v4.227c0,1.283.179,2.956,2.389,2.956,1.727,0,2.486-1.058,2.486-2.692V109.96H77.194l-.014,4.3c0,.349.043,1.047-.482,1.047-.65,0-.5-1.087-.5-1.478V109.96Zm5.841,0h1.947v.851h.028a1.986,1.986,0,0,1,1.589-1.116v1.912a2.082,2.082,0,0,0-.305-.028c-1.3,0-1.312.865-1.312,1.91V117H80.094V109.96ZM3.789,126.975v1.95H5.1c0,.727-.164,2.15-1.214,2.15-1.52,0-1.589-2.414-1.589-3.5,0-.99.138-3.584,1.534-3.5.788,0,.954.823,1.05,1.352l2-.781a3.121,3.121,0,0,0-3.066-2.5C.874,122.147.1,125.2.1,127.631c0,2.327.911,5.369,3.716,5.369s3.343-2.971,3.343-5.2v-.822Zm6.757,4.2c.62,0,.677-1.52.677-1.9s-.043-1.883-.705-1.883-.691,1.478-.691,1.883C9.826,129.722,9.855,131.172,10.546,131.172Zm.538,1.659v-.794h-.027a1.436,1.436,0,0,1-1.286.935c-1.575,0-1.893-2.54-1.893-3.67,0-1.212.236-3.653,1.866-3.653a1.407,1.407,0,0,1,1.313,1h.027v-.865h1.948v7.043Zm2.9-7.043v7.043H15.93v-3.514c0-1.047.013-1.911,1.313-1.911a2.21,2.21,0,0,1,.3.027v-1.911a1.988,1.988,0,0,0-1.589,1.116H15.93v-.851Zm4.959-1.952h1.947v1.952h.8v1.619h-.8v5.425H18.941v-5.425h-.677v-1.619h.677Zm6.835,4.785H24.353v-.21c0-.445.125-1.256.719-1.256s.7.837.7,1.3Zm1.686.4c.111-2.218-1.077-3.374-2.362-3.374-2.03,0-2.638,2.12-2.638,3.807,0,1.743.7,3.515,2.679,3.515,1.423,0,2.046-1.019,2.211-2.315H25.693c0,.419-.125.808-.621.808-.746,0-.72-1.116-.732-1.633h3.08l.041-.809Zm2.788-3.235v1.087h.027a1.8,1.8,0,0,1,1.616-1.226c1.437,0,1.313,1.617,1.313,2.635v4.547H31.257v-3.863c0-.363.139-1.338-.484-1.338-.441,0-.523.459-.523.808v4.392H28.3v-7.043ZM0,100.88H100V0H0ZM93.441,6.541V53.48A20.724,20.724,0,0,1,74.7,70.644v-6.6a13.242,13.242,0,1,0-2.935.069v6.544c-10.185-.7-17.983-8.974-19.175-20.586C51.207,35.015,40.4,24.09,26.881,24.09A26.519,26.519,0,0,0,6.563,33.62V6.541ZM6.563,94.341V47.527A20.733,20.733,0,0,1,26.881,30.112c10.486,0,18.582,8.432,19.691,20.538,1.575,15.356,12.507,26.082,26.582,26.082a26.5,26.5,0,0,0,20.287-9.477V94.341Z" fill="#78be20"/>
</svg>
