<?xml version="1.0" encoding="UTF-8" standalone="no"?>
<svg
   width="190"
   height="138"
   viewBox="0 0 190 138"
   version="1.1"
   id="svg1"
   sodipodi:docname="hmkw--white.svg"
   inkscape:version="1.4 (e7c3feb100, 2024-10-09)"
   xmlns:inkscape="http://www.inkscape.org/namespaces/inkscape"
   xmlns:sodipodi="http://sodipodi.sourceforge.net/DTD/sodipodi-0.dtd"
   xmlns="http://www.w3.org/2000/svg"
   xmlns:svg="http://www.w3.org/2000/svg">
  <defs
     id="defs1" />
  <sodipodi:namedview
     id="namedview1"
     pagecolor="#ffffff"
     bordercolor="#000000"
     borderopacity="0.25"
     inkscape:showpageshadow="2"
     inkscape:pageopacity="0.0"
     inkscape:pagecheckerboard="0"
     inkscape:deskcolor="#d1d1d1"
     inkscape:export-bgcolor="#ffffff00"
     inkscape:zoom="2.0495849"
     inkscape:cx="-13.905255"
     inkscape:cy="24.883088"
     inkscape:window-width="1920"
     inkscape:window-height="1008"
     inkscape:window-x="0"
     inkscape:window-y="0"
     inkscape:window-maximized="1"
     inkscape:current-layer="svg1" />
  <path
     d="M31.574 127.497c.668 0 1.246.16 1.735.478.488.32.866.763 1.132 1.333.266.57.399 1.236.399 1.999 0 .773-.14 1.449-.421 2.029-.281.579-.673 1.028-1.176 1.346-.502.32-1.093.478-1.77.478-.697 0-1.276-.166-1.735-.5-.307-.222-.537-.509-.704-.85V138h-1.51v-10.358h1.437v1.264c.182-.38.462-.69.842-.93.503-.32 1.094-.479 1.771-.479zm8.795 0c.667 0 1.245.16 1.734.478.489.32.866.763 1.132 1.333.267.57.4 1.236.4 1.999 0 .773-.14 1.449-.421 2.029-.281.579-.673 1.028-1.176 1.346-.503.32-1.093.478-1.771.478-.697 0-1.275-.166-1.735-.5-.306-.222-.537-.509-.703-.85V138h-1.51v-10.358h1.437v1.263c.181-.379.461-.689.842-.93.503-.318 1.093-.478 1.77-.478zm14.855 0c.717 0 1.338.152 1.866.456.527.305.934.727 1.22 1.268.284.541.427 1.183.427 1.927 0 .116-.002.224-.007.326-.005.102-.017.205-.037.312H53.02c.063.618.25 1.125.573 1.506.401.473.96.71 1.677.71.435 0 .812-.09 1.131-.268.32-.179.557-.442.712-.79h1.422c-.242.696-.651 1.241-1.226 1.638-.576.396-1.266.593-2.069.593-.745 0-1.4-.164-1.966-.492-.567-.329-1.01-.782-1.33-1.362-.318-.58-.478-1.246-.478-2 0-.762.158-1.431.472-2.006.314-.574.757-1.021 1.328-1.34.57-.318 1.224-.478 1.96-.478zm29.292 0c.59 0 1.117.111 1.582.334.465.222.847.53 1.147.927.3.396.493.864.58 1.405h-1.422c-.097-.435-.307-.783-.631-1.043-.325-.261-.734-.391-1.227-.391-.426 0-.798.106-1.117.318-.32.213-.567.512-.741.898-.174.387-.261.846-.261 1.377 0 .521.087.98.261 1.376.174.396.421.702.74.92.32.217.697.326 1.133.326.473 0 .878-.128 1.212-.384.333-.256.548-.601.645-1.036h1.423c-.097.531-.298.995-.603 1.39-.304.397-.689.706-1.154.928-.464.222-.982.333-1.552.333-.707 0-1.336-.167-1.887-.5-.552-.333-.986-.79-1.3-1.369-.314-.579-.471-1.24-.471-1.984s.157-1.403.471-1.978c.314-.575.748-1.026 1.3-1.354.55-.329 1.175-.493 1.872-.493zm36.046 0c.716 0 1.338.152 1.865.456.527.305.934.727 1.22 1.268.285.541.427 1.183.427 1.927 0 .116-.002.224-.006.326-.006.102-.017.205-.037.312h-5.675c.063.618.25 1.125.573 1.506.401.473.96.71 1.677.71.435 0 .812-.09 1.132-.268.32-.179.556-.442.711-.79h1.422c-.241.696-.65 1.241-1.226 1.638-.576.396-1.265.593-2.068.593-.746 0-1.401-.164-1.967-.492-.566-.329-1.01-.782-1.329-1.362-.318-.58-.478-1.246-.478-2 0-.762.157-1.431.471-2.006.315-.574.758-1.021 1.328-1.34.571-.318 1.225-.478 1.96-.478zm-24.672 0c.716 0 1.338.152 1.865.456.527.305.934.727 1.219 1.268.286.541.428 1.183.428 1.927 0 .116-.002.224-.007.326-.005.102-.017.205-.036.312h-5.675c.063.618.25 1.125.573 1.506.401.473.96.71 1.676.71.436 0 .813-.09 1.133-.268.319-.179.556-.442.71-.79H99.2c-.242.696-.65 1.241-1.226 1.638-.576.396-1.265.593-2.069.593-.745 0-1.4-.164-1.967-.492-.565-.329-1.008-.782-1.328-1.362-.319-.58-.478-1.246-.478-2 0-.762.157-1.431.471-2.006.315-.574.757-1.021 1.328-1.34.571-.318 1.224-.478 1.96-.478zm16.73 0c.591 0 1.118.111 1.583.334.465.222.847.53 1.147.927.3.396.494.864.58 1.405h-1.422c-.097-.435-.308-.783-.631-1.043-.325-.261-.734-.391-1.227-.391-.426 0-.798.106-1.117.318-.32.213-.567.512-.741.898-.174.387-.261.846-.261 1.377 0 .521.087.98.261 1.376.174.396.421.702.74.92.32.217.697.326 1.132.326.474 0 .879-.128 1.213-.384.333-.256.548-.601.645-1.036h1.423c-.097.531-.298.995-.603 1.39-.305.397-.689.706-1.154.928-.464.222-.982.333-1.553.333-.706 0-1.335-.167-1.886-.5-.552-.333-.985-.79-1.3-1.369-.314-.579-.471-1.24-.471-1.984s.157-1.403.471-1.978c.315-.575.748-1.026 1.3-1.354.55-.329 1.175-.493 1.872-.493zm15.423 0c.86 0 1.555.193 2.083.58.527.386.825.927.892 1.622h-1.393c-.058-.348-.225-.616-.5-.804-.277-.188-.652-.282-1.126-.282-.445 0-.786.079-1.023.238-.237.16-.356.38-.356.66 0 .232.09.425.269.579.18.154.477.285.893.391l1.22.304c.705.174 1.238.457 1.595.848.359.391.537.862.537 1.413 0 .666-.259 1.188-.776 1.564-.517.377-1.241.565-2.17.565-.968 0-1.737-.212-2.308-.637-.57-.425-.895-1.024-.973-1.797h1.394c.068.425.264.752.588.978.324.227.767.34 1.328.34.494 0 .871-.086 1.133-.26.26-.174.391-.42.391-.739 0-.231-.075-.427-.225-.587-.15-.16-.442-.292-.878-.398l-1.19-.275c-.745-.184-1.299-.457-1.662-.819-.363-.362-.545-.809-.545-1.34 0-.666.25-1.19.748-1.572.498-.381 1.183-.572 2.054-.572zm-61.01-2.897v10.43h-1.438v-1.264c-.177.372-.448.68-.812.923-.484.324-1.065.486-1.742.486-.668 0-1.25-.16-1.75-.478-.498-.319-.885-.763-1.16-1.333-.276-.57-.414-1.236-.414-1.999 0-.773.14-1.449.42-2.028.281-.58.674-1.028 1.177-1.347.503-.319 1.093-.478 1.77-.478.707 0 1.29.166 1.75.5.306.222.537.51.703.85V124.6h1.496zm-63.23 2.897c.764 0 1.432.162 2.003.485.571.324 1.014.77 1.328 1.34.314.57.472 1.232.472 1.985 0 .744-.158 1.408-.472 1.992-.314.585-.757 1.043-1.328 1.377-.57.333-1.239.499-2.003.499-.755 0-1.418-.166-1.989-.5-.57-.333-1.016-.791-1.335-1.376-.32-.584-.479-1.248-.479-1.992 0-.753.162-1.414.486-1.985.325-.57.77-1.016 1.336-1.34.566-.323 1.226-.485 1.981-.485zm72.091-3.057c1.103 0 1.986.278 2.65.833.662.556 1.042 1.326 1.139 2.31h-1.495c-.117-.656-.368-1.136-.755-1.44-.388-.304-.92-.457-1.597-.457-.638 0-1.137.125-1.495.377-.358.251-.537.604-.537 1.058 0 .366.118.673.355.92.237.246.632.456 1.184.63l1.9.608c.882.28 1.533.662 1.953 1.145.421.483.632 1.09.632 1.825 0 .927-.32 1.644-.958 2.151-.64.507-1.539.76-2.7.76-1.258 0-2.264-.298-3.02-.898-.754-.598-1.194-1.453-1.32-2.564h1.495c.087.724.377 1.275.871 1.652.493.377 1.161.565 2.003.565.706 0 1.241-.13 1.604-.391s.544-.633.544-1.116c0-.434-.12-.78-.363-1.035-.242-.256-.624-.466-1.147-.631l-1.814-.58c-.928-.298-1.611-.675-2.046-1.13-.436-.453-.654-1.027-.654-1.723 0-.59.148-1.096.443-1.521.295-.425.712-.756 1.248-.992.537-.237 1.164-.356 1.88-.356zm-53.577.16l3.948 10.43h-1.597l-1.039-2.883h-4.497l-1.039 2.883h-1.51l3.934-10.43h1.8zm-10.248-.145c.194 0 .353.01.48.029.124.02.236.049.333.087v1.159c-.068-.02-.157-.039-.268-.058-.112-.02-.235-.03-.37-.03-.426 0-.736.105-.93.312-.193.208-.29.5-.29.877v.81h1.699v1.203h-1.7v6.186H9.516v-6.186H8.092v-1.202h1.423v-.855c0-.753.212-1.33.638-1.73.426-.402 1.065-.602 1.916-.602zm92.97 3.042c.794 0 1.419.223 1.873.667.455.444.683 1.033.683 1.767v5.1h-1.496v-4.753c0-.51-.128-.892-.384-1.144-.257-.251-.637-.376-1.14-.376-.435 0-.82.096-1.154.289-.333.194-.595.46-.784.797-.188.338-.282.739-.282 1.203v3.983h-1.51v-7.388h1.437v1.416c.24-.444.57-.809 1.002-1.082.502-.32 1.088-.479 1.756-.479zm-58.4-2.897v10.43h-1.51V124.6h1.51zm44.083 3.027v7.389h-1.51v-7.39h1.51zm-40.665 0v7.389h-1.51v-7.39h1.51zm-46.254 1.101c-.658 0-1.198.232-1.618.695-.422.464-.632 1.087-.632 1.87 0 .53.095.995.283 1.39.189.396.455.705.798.928.344.222.733.333 1.17.333.454 0 .848-.111 1.182-.333.334-.223.598-.532.791-.928.194-.395.29-.86.29-1.39 0-.792-.21-1.417-.63-1.876-.422-.46-.966-.689-1.634-.689zm59.6.03c-.658 0-1.178.229-1.56.687-.382.46-.573 1.1-.573 1.92 0 .802.191 1.427.573 1.876.382.45.908.674 1.575.674.668 0 1.195-.23 1.582-.688.388-.459.58-1.094.58-1.905 0-.792-.195-1.418-.587-1.877-.392-.458-.922-.687-1.59-.687zm-32.264 0c-.659 0-1.183.229-1.575.688-.392.458-.588 1.093-.588 1.904 0 .792.196 1.418.588 1.877.392.458.921.688 1.59.688.657 0 1.18-.232 1.567-.696.387-.463.58-1.1.58-1.912 0-.802-.193-1.427-.58-1.876-.387-.449-.915-.674-1.582-.674zm8.794 0c-.658 0-1.183.229-1.575.688-.391.458-.587 1.093-.587 1.904 0 .792.196 1.418.587 1.877.392.458.922.688 1.59.688.658 0 1.18-.232 1.567-.696.388-.463.58-1.1.58-1.912 0-.802-.192-1.427-.58-1.876-.387-.449-.914-.674-1.582-.674zm-18.553-2.85l-1.788 4.964h3.578l-1.79-4.963zm99.182 2.763c-.687 0-1.232.234-1.633.702-.286.334-.466.764-.548 1.282h4.186c-.057-.572-.224-1.03-.51-1.362-.358-.415-.856-.622-1.495-.622zm-24.672 0c-.687 0-1.232.234-1.633.702-.287.334-.466.764-.548 1.282h4.186c-.057-.572-.224-1.03-.51-1.362-.358-.415-.857-.622-1.495-.622zm-40.666 0c-.686 0-1.23.234-1.632.702-.287.334-.466.764-.549 1.282h4.187c-.058-.572-.224-1.03-.51-1.362-.358-.415-.857-.622-1.496-.622zm35.498-4.086v1.517h-1.51v-1.517h1.51zm-40.665 0v1.517h-1.51v-1.517h1.51zm70.936-24.173l4.34 10.747 4.161-10.747h3.211l-8.918 21.213h-3.18l3.092-7.051-6.065-14.162h3.359zm-29.169-.296c1.764 0 3.186.395 4.266 1.186 1.08.792 1.69 1.899 1.828 3.323h-2.853c-.12-.712-.462-1.26-1.026-1.647-.565-.385-1.333-.578-2.304-.578-.912 0-1.61.163-2.095.49-.487.326-.73.776-.73 1.35 0 .474.184.87.551 1.186.366.316.976.584 1.828.801l2.497.623c1.446.356 2.537.935 3.27 1.736.733.801 1.1 1.765 1.1 2.892 0 1.365-.53 2.434-1.59 3.205-1.061.771-2.542 1.157-4.445 1.157-1.981 0-3.557-.435-4.726-1.306-1.17-.87-1.833-2.096-1.992-3.679h2.854c.138.871.54 1.539 1.204 2.003.663.465 1.57.697 2.72.697 1.01 0 1.783-.178 2.318-.534.536-.356.803-.86.803-1.513 0-.474-.154-.875-.46-1.201-.308-.327-.907-.598-1.799-.816l-2.438-.564c-1.526-.376-2.66-.935-3.403-1.676-.744-.742-1.115-1.656-1.115-2.744 0-1.365.51-2.438 1.53-3.22 1.021-.78 2.424-1.171 4.207-1.171zm-26.106 0c1.466 0 2.74.31 3.82.934 1.08.623 1.912 1.489 2.496 2.596.585 1.108.878 2.423.878 3.946 0 .237-.005.46-.015.667-.01.208-.035.421-.075.638H61.19c.129 1.272.52 2.304 1.184 3.086.822.969 1.966 1.454 3.433 1.454.892 0 1.665-.183 2.319-.55.654-.365 1.139-.904 1.456-1.616h2.913c-.495 1.424-1.332 2.542-2.511 3.352-1.18.811-2.592 1.217-4.237 1.217-1.526 0-2.868-.336-4.028-1.009-1.159-.672-2.065-1.602-2.72-2.789-.653-1.187-.98-2.552-.98-4.094 0-1.562.322-2.932.966-4.11.644-1.176 1.55-2.091 2.72-2.743 1.169-.653 2.506-.98 4.013-.98zM3.165 94.182v12.757c0 2.038.466 3.586 1.397 4.644.932 1.058 2.25 1.587 3.954 1.587 1.744 0 3.082-.524 4.013-1.573.931-1.048 1.397-2.6 1.397-4.658V94.182h3.152v12.46c0 2.928-.74 5.193-2.215 6.795-1.477 1.602-3.592 2.403-6.347 2.403-2.735 0-4.835-.801-6.302-2.403-1.467-1.602-2.2-3.887-2.2-6.854V94.182h3.151zm108.946 1.602v4.628h4.31v2.463h-4.31v8.129c0 .791.208 1.375.625 1.75.416.376 1.09.564 2.021.564.357 0 .674-.03.951-.09.277-.058.515-.127.713-.207v2.493c-.218.098-.525.178-.92.237-.398.06-.844.089-1.338.089-1.765 0-3.058-.41-3.88-1.231-.823-.821-1.233-2.033-1.233-3.635v-8.1h-3.033v-2.462h3.033v-3.471l3.061-1.157zm-82.976 4.331c1.625 0 2.903.456 3.835 1.365.931.91 1.397 2.117 1.397 3.62v10.443h-3.062v-9.731c0-1.048-.263-1.83-.787-2.344-.526-.514-1.304-.772-2.334-.772-.892 0-1.68.199-2.363.594-.684.396-1.22.94-1.605 1.632-.387.692-.58 1.513-.58 2.462v8.16h-3.092v-15.132h2.943v2.872c.49-.902 1.172-1.633 2.051-2.19 1.03-.652 2.23-.979 3.597-.979zm11.669.297v15.131h-3.092v-15.131h3.092zm5.187 0l4.321 11.745 4.27-11.745h3.181l-6.153 15.131h-2.735l-6.184-15.131h3.3zm58.067 0v15.131h-3.092v-15.131h3.092zm-20.64-.296c.455 0 .773.04.951.118v2.908c-.1-.04-.238-.064-.416-.075-.179-.01-.397-.014-.654-.014-1.487 0-2.601.385-3.345 1.157-.743.771-1.114 1.918-1.114 3.441v7.892h-3.092v-15.131h2.943v2.944c.369-.943.901-1.689 1.606-2.232.871-.672 1.911-1.008 3.12-1.008zm-17.7 2.403c-1.407 0-2.522.48-3.344 1.439-.588.685-.961 1.562-1.129 2.625h8.587c-.118-1.175-.465-2.107-1.052-2.789-.734-.85-1.754-1.275-3.062-1.275zm-24.914-8.337v3.086h-3.092v-3.086h3.092zm63.253 0v3.086h-3.091v-3.086h3.091zM73.63 70.428c1.981 0 3.468.46 4.46 1.38.99.92 1.485 2.27 1.485 4.05v7.09c0 .456.03.92.09 1.395.06.474.148.979.267 1.513H76.93c-.1-.376-.164-.791-.193-1.247-.022-.332-.036-.718-.041-1.156-.375.776-.929 1.396-1.668 1.854-.912.563-2.022.845-3.33.845-1.545 0-2.774-.38-3.686-1.142-.912-.761-1.367-1.795-1.367-3.1 0-1.345.48-2.408 1.441-3.19.961-.78 2.344-1.31 4.147-1.586l4.31-.692v-.703c0-.97-.242-1.696-.728-2.18-.486-.486-1.253-.728-2.304-.728-1.01 0-1.818.198-2.422.593-.605.397-.957.96-1.056 1.692H67.09c.138-1.424.782-2.561 1.932-3.412 1.15-.85 2.685-1.276 4.607-1.276zm-40.47 0c1.466 0 2.739.312 3.82.935 1.08.623 1.912 1.488 2.496 2.596.585 1.107.877 2.423.877 3.946 0 .237-.005.46-.015.667-.01.208-.035.42-.074.638H28.631c.128 1.272.52 2.304 1.183 3.085.822.97 1.967 1.454 3.434 1.454.891 0 1.664-.182 2.318-.549.654-.365 1.14-.905 1.457-1.617h2.913c-.496 1.425-1.333 2.542-2.512 3.353-1.179.811-2.591 1.216-4.236 1.216-1.526 0-2.869-.336-4.028-1.009-1.16-.672-2.065-1.602-2.72-2.788-.654-1.187-.98-2.552-.98-4.094 0-1.563.322-2.932.965-4.11.644-1.176 1.551-2.091 2.72-2.744 1.17-.652 2.507-.98 4.013-.98zm23.952-5.933v21.36h-2.943v-2.588c-.364.762-.919 1.393-1.665 1.892-.99.662-2.18.993-3.567.993-1.367 0-2.561-.326-3.581-.979-1.021-.652-1.814-1.562-2.379-2.73-.564-1.166-.847-2.53-.847-4.094 0-1.582.287-2.966.862-4.153.575-1.187 1.377-2.106 2.408-2.759 1.03-.653 2.24-.979 3.627-.979 1.446 0 2.64.341 3.581 1.023.623.452 1.101 1.024 1.442 1.713v-8.7h3.062zM190 0v57.333l-57.334 9.437V86L104 71.667V35.833L190 0zM63.861 70.725v15.13h-3.09v-15.13h3.09zM4.89 64.495l6.329 18.263 6.275-18.263h4.935v21.36h-3.122V67.156l-6.42 18.7H9.378l-6.42-18.534v18.533H.014v-21.36h4.874zm71.654 14.11l-3.835.605c-1.011.159-1.769.426-2.274.801-.505.376-.758.92-.758 1.632 0 .692.233 1.212.698 1.557.466.347 1.145.52 2.037.52 1.189 0 2.174-.287 2.957-.86.783-.574 1.175-1.296 1.175-2.166v-2.088zM49.68 73.01c-1.349 0-2.413.47-3.196 1.41-.783.939-1.174 2.25-1.174 3.93 0 1.643.39 2.923 1.174 3.842.783.92 1.858 1.38 3.225 1.38 1.368 0 2.448-.47 3.24-1.41.793-.938 1.19-2.24 1.19-3.9 0-1.622-.402-2.903-1.204-3.843-.803-.939-1.888-1.409-3.255-1.409zm-16.522-.178c-1.407 0-2.522.48-3.344 1.44-.587.684-.96 1.562-1.129 2.625h8.587c-.117-1.175-.465-2.108-1.052-2.789-.733-.85-1.754-1.276-3.062-1.276zm30.703-8.336v3.086h-3.09v-3.086h3.09z"
     fill="#ffffff"
     fill-rule="evenodd"
     id="path1"
     style="fill:#003d4b;fill-opacity:1" />
</svg>
