<svg width="209" height="88" viewBox="0 0 209 88" fill="none" xmlns="http://www.w3.org/2000/svg">
<g clip-path="url(#clip0_665_25468)">
<path d="M34.5374 50.1664C34.5374 47.4149 35.2242 44.7125 36.5978 42.1575C37.9715 39.5534 39.8848 37.588 42.3868 36.2122C44.8888 34.8364 47.6851 34.1486 50.7268 34.1486C55.4855 34.1486 59.3611 35.6717 62.4028 38.7672C65.4444 41.8627 66.9652 45.7443 66.9652 50.4612C66.9652 55.2273 65.4444 59.1581 62.3537 62.3027C59.263 65.4473 55.4364 67.0196 50.7758 67.0196C47.8814 67.0196 45.1341 66.3808 42.5339 65.0542C39.9338 63.7276 37.9224 61.8604 36.5488 59.3055C35.2242 56.8487 34.5374 53.8024 34.5374 50.1664ZM43.0736 50.6578C43.0736 53.8024 43.8095 56.1608 45.2812 57.8314C46.753 59.502 48.5682 60.3373 50.7758 60.3373C52.9344 60.3373 54.7496 59.502 56.2214 57.8314C57.6931 56.1608 58.429 53.7532 58.429 50.6086C58.429 47.5132 57.6931 45.1547 56.2214 43.4841C54.7496 41.8136 52.9344 40.9783 50.7758 40.9783C48.6172 40.9783 46.8021 41.8136 45.2812 43.4841C43.8095 45.1056 43.0736 47.5132 43.0736 50.6578Z" fill="black"/>
<path d="M110.971 66.3808V61.6638C109.843 63.3344 108.322 64.661 106.458 65.6437C104.593 66.6264 102.631 67.1178 100.571 67.1178C98.4611 67.1178 96.5478 66.6756 94.8798 65.742C93.2118 64.8084 91.9853 63.531 91.2494 61.8112C90.5136 60.1407 90.1211 57.8313 90.1211 54.8341V34.8855H98.412V49.3311C98.412 53.7532 98.5592 56.4556 98.8536 57.4874C99.1479 58.5192 99.7366 59.2562 100.522 59.8459C101.307 60.4355 102.337 60.7303 103.612 60.7303C105.035 60.7303 106.311 60.3372 107.439 59.551C108.567 58.7649 109.352 57.7822 109.745 56.6521C110.137 55.4729 110.382 52.6722 110.382 48.1518V34.8855H118.722V66.3316H110.971V66.3808Z" fill="black"/>
<path d="M154.143 66.3808H145.852V50.3138C145.852 46.9235 145.656 44.7125 145.312 43.7298C144.969 42.7471 144.38 41.961 143.595 41.4205C142.81 40.88 141.829 40.5852 140.701 40.5852C139.278 40.5852 137.953 40.9783 136.825 41.7644C135.697 42.5506 134.912 43.5824 134.47 44.909C134.029 46.2357 133.832 48.6433 133.832 52.1318V66.3808H125.542V34.8856H133.244V39.5042C135.991 35.9665 139.425 34.1486 143.595 34.1486C145.41 34.1486 147.127 34.4925 148.648 35.1313C150.169 35.77 151.297 36.6544 152.082 37.6862C152.867 38.7181 153.407 39.8973 153.701 41.1748C153.996 42.5014 154.143 44.3685 154.143 46.7761V66.3808Z" fill="black"/>
<path d="M175.827 34.8855V41.5187H170.136V54.1954C170.136 56.7504 170.185 58.2736 170.283 58.6667C170.381 59.1089 170.627 59.4528 171.019 59.6985C171.412 59.9933 171.853 60.0916 172.442 60.0916C173.227 60.0916 174.306 59.8459 175.778 59.3054L176.465 65.742C174.551 66.5773 172.344 66.9704 169.891 66.9704C168.37 66.9704 167.045 66.7247 165.819 66.2334C164.592 65.742 163.709 65.0542 163.17 64.268C162.63 63.4819 162.238 62.4009 161.992 61.0251C161.796 60.0424 161.747 58.1262 161.747 55.1781V41.5187H157.92V34.8855H161.747V28.6454L170.087 23.7811V34.8855H175.827Z" fill="black"/>
<path d="M79.5243 54.1955C79.5243 56.7505 79.5734 58.2736 79.6715 58.6667C79.7696 59.1089 80.0149 59.4529 80.4074 59.6986C80.7998 59.9934 81.2414 60.0916 81.8301 60.0916C82.615 60.0916 83.6943 59.846 85.1661 59.3055L85.8529 65.8404C83.9396 66.6757 81.732 67.0687 79.279 67.0687C77.7582 67.0687 76.4336 66.8231 75.2071 66.3317C73.9807 65.8404 73.0976 65.1525 72.558 64.3663C72.0183 63.5802 71.6258 62.4992 71.3805 61.1235C71.1843 60.1408 71.1353 58.2245 71.1353 55.2764V23.8303H79.4753V54.1955H79.5243Z" fill="black"/>
<path d="M208.255 46.8744V46.3339C208.255 45.5478 208.206 44.8108 208.107 44.1229C207.323 35.6717 202.76 34.3942 196.382 34.2468C196.333 34.2468 196.235 34.2468 196.186 34.2468C195.892 34.2468 195.548 34.2468 195.254 34.2468C195.156 34.2468 195.107 34.2468 195.009 34.2468C194.96 34.2468 194.96 34.2468 194.911 34.2468C194.714 34.2468 194.567 34.2468 194.371 34.2468C194.175 34.2468 193.929 34.2468 193.733 34.296C193.586 34.296 193.488 34.296 193.341 34.296C193.292 34.296 193.243 34.296 193.194 34.296C190.005 34.4925 187.503 35.1804 185.786 36.4087C183.725 37.8828 182.253 40.143 181.419 43.1402L188.975 44.516C189.465 43.0419 190.152 42.0101 190.986 41.4696C191.82 40.88 192.948 40.5852 194.469 40.5852C196.677 40.5852 198.149 40.9291 198.933 41.617C199.718 42.3049 200.111 43.435 200.111 45.0564V45.8917C198.59 46.5305 195.941 47.2184 192.016 47.9554C189.122 48.4959 186.914 49.1346 185.393 49.8716C183.872 50.6086 182.695 51.6896 181.812 53.0654C180.929 54.4411 180.536 56.0626 180.536 57.8314C180.536 60.5338 181.469 62.7449 183.333 64.5137C185.197 66.2826 187.748 67.167 190.986 67.167C192.801 67.167 194.567 66.823 196.186 66.1352C197.805 65.4473 199.326 64.4155 200.749 63.0397V66.4791H208.255V46.8744ZM200.111 52.918C200.111 54.9325 199.767 56.0134 199.522 56.7505C199.228 57.8314 198.541 58.765 197.56 59.502C196.186 60.4847 194.616 61.0252 193.095 61.0252C191.771 61.0252 190.495 60.7304 189.612 59.8951C188.729 59.0598 188.337 58.028 188.337 56.8979C188.337 55.7186 188.876 54.7359 189.956 53.9498C190.643 53.4584 192.703 53.0654 195.009 52.574C197.315 52.0827 198.982 51.6405 200.062 51.2965V52.918H200.111Z" fill="black"/>
<path d="M61.3235 0C23.5482 12.1854 19.6235 54.0971 19.6235 54.0971L9.174 23.7811H0L14.9139 66.3808H27.1786C27.4239 58.1262 26.7371 15.7722 62.3047 1.17923L61.3235 0Z" fill="#FF0000"/>
<path d="M20.5556 85.2485V86.4277H14.9138V78.9102H20.4084V80.0894H16.3365V82.0548H19.9669V83.1849H16.3365V85.2485H20.5556Z" fill="#FF0000"/>
<path d="M29.337 78.861V86.3786H28.2087L24.0387 81.3177V86.4277H22.665V78.9101H23.7934L27.9634 84.0201V78.9101H29.337V78.861Z" fill="#FF0000"/>
<path d="M33.409 80.0402H30.907V78.861H37.2846V80.0402H34.8317V86.3786H33.458V80.0402H33.409Z" fill="#FF0000"/>
<path d="M38.9036 78.861H42.1905C42.9755 78.861 43.7113 79.0084 44.3491 79.3523C44.9869 79.6471 45.4775 80.0893 45.8209 80.6789C46.1643 81.2686 46.3605 81.9073 46.3605 82.6443C46.3605 83.3813 46.1643 84.0692 45.8209 84.6097C45.4775 85.1993 44.9869 85.6415 44.3491 85.9363C43.7113 86.2312 43.0245 86.4277 42.1905 86.4277H38.9036V78.861ZM42.0924 85.1993C42.632 85.1993 43.1226 85.1011 43.5642 84.9045C44.0057 84.708 44.3 84.4132 44.5453 84.0201C44.7906 83.627 44.8887 83.1848 44.8887 82.6443C44.8887 82.1038 44.7906 81.6616 44.5453 81.2686C44.3 80.8755 44.0057 80.5807 43.5642 80.3841C43.1226 80.1876 42.6811 80.0893 42.0924 80.0893H40.2772V85.2485H42.0924V85.1993Z" fill="#FF0000"/>
<path d="M53.9648 85.2485V86.4277H48.323V78.9102H53.8176V80.0894H49.7457V82.0548H53.3761V83.1849H49.7457V85.2485H53.9648Z" fill="#FF0000"/>
<path d="M57.4479 85.9855C56.8592 85.6416 56.3687 85.1994 56.0252 84.6098C55.6818 84.0202 55.4856 83.3814 55.4856 82.5953C55.4856 81.8091 55.6818 81.1704 56.0252 80.5807C56.3687 79.9911 56.8592 79.5489 57.4479 79.205C58.0367 78.861 58.7235 78.7136 59.5084 78.7136C60.1462 78.7136 60.6858 78.8119 61.1764 79.0576C61.667 79.2541 62.1085 79.598 62.4519 79.9911L61.5689 80.8264C61.0292 80.2368 60.3424 79.942 59.5575 79.942C59.0178 79.942 58.5763 80.0403 58.1838 80.2859C57.7914 80.5316 57.4479 80.8264 57.2517 81.2195C57.0555 81.6126 56.9083 82.0548 56.9083 82.5953C56.9083 83.0866 57.0064 83.5779 57.2517 83.971C57.497 84.3641 57.7914 84.708 58.1838 84.9046C58.5763 85.1011 59.0669 85.2485 59.5575 85.2485C60.3424 85.2485 61.0292 84.9537 61.5689 84.3641L62.4519 85.2485C62.1085 85.6416 61.667 85.9855 61.1764 86.1821C60.6858 86.3786 60.0971 86.526 59.5084 86.526C58.7235 86.526 58.0367 86.3295 57.4479 85.9855Z" fill="#FF0000"/>
<path d="M66.9651 83.2339L65.7877 84.4623V86.3786H64.4141V78.861H65.7877V82.7426L69.5162 78.861H71.0861L67.9463 82.2512L71.2823 86.4277H69.6634L66.9651 83.2339Z" fill="#FF0000"/>
<path d="M78.3469 85.2485V86.4277H72.7051V78.9102H78.1997V80.0894H74.1278V82.0548H77.7581V83.1849H74.1278V85.2485H78.3469Z" fill="#FF0000"/>
<path d="M81.4866 84.9537C81.6338 85.1011 81.7319 85.3468 81.7319 85.5925C81.7319 85.6908 81.7319 85.8382 81.6829 85.9364C81.6338 86.0838 81.5848 86.2312 81.4866 86.4769L80.947 88.0001H80.0639L80.5055 86.3295C80.3583 86.2804 80.2111 86.1821 80.113 86.0347C80.0149 85.8873 79.9658 85.7399 79.9658 85.5434C79.9658 85.2977 80.0639 85.052 80.2111 84.9046C80.3583 84.7572 80.6036 84.6589 80.8489 84.6589C81.1432 84.7081 81.3395 84.7572 81.4866 84.9537Z" fill="#FF0000"/>
<path d="M98.2158 78.861L95.7138 86.3786H94.242L92.3778 80.8263L90.4645 86.3786H88.9927L86.4907 78.861H87.9625L89.8267 84.6097L91.7891 78.861H93.0646L94.9779 84.6097L96.8912 78.861H98.2158Z" fill="black"/>
<path d="M104.544 84.6588H100.767L100.031 86.3786H98.6082L101.993 78.861H103.367L106.752 86.3786H105.28L104.544 84.6588ZM104.054 83.5779L102.631 80.2859L101.208 83.5779H104.054Z" fill="black"/>
<path d="M108.911 86.2803C108.371 86.1329 107.929 85.8872 107.635 85.6415L108.126 84.5606C108.42 84.8063 108.812 85.0028 109.254 85.1502C109.695 85.2976 110.137 85.3959 110.579 85.3959C111.118 85.3959 111.56 85.2976 111.854 85.1502C112.148 85.0028 112.247 84.7571 112.247 84.4623C112.247 84.2658 112.148 84.0692 112.001 83.9218C111.854 83.7744 111.658 83.6762 111.413 83.5779C111.167 83.4796 110.873 83.4305 110.431 83.3322C109.843 83.1848 109.401 83.0374 109.058 82.9391C108.714 82.7917 108.42 82.5952 108.126 82.3004C107.88 82.0056 107.733 81.6125 107.733 81.1212C107.733 80.7281 107.831 80.335 108.077 79.9911C108.322 79.6471 108.665 79.4014 109.107 79.1558C109.548 78.9592 110.137 78.861 110.775 78.861C111.216 78.861 111.707 78.9101 112.148 79.0575C112.59 79.1558 112.982 79.3523 113.277 79.5488L112.835 80.6298C112.492 80.4333 112.148 80.2859 111.805 80.1876C111.462 80.0893 111.118 80.0402 110.775 80.0402C110.235 80.0402 109.794 80.1385 109.548 80.335C109.303 80.5315 109.156 80.7772 109.156 81.072C109.156 81.2686 109.254 81.4651 109.401 81.6125C109.548 81.7599 109.745 81.8582 109.99 81.9564C110.235 82.0547 110.529 82.1038 110.971 82.2021C111.511 82.3495 112.001 82.4478 112.345 82.5952C112.688 82.7426 113.031 82.9391 113.277 83.2339C113.522 83.5287 113.669 83.9218 113.669 84.4132C113.669 84.8062 113.571 85.1993 113.326 85.5433C113.081 85.8872 112.737 86.1329 112.296 86.3294C111.854 86.526 111.265 86.6242 110.628 86.6242C109.99 86.526 109.45 86.4277 108.911 86.2803Z" fill="black"/>
<path d="M119.017 78.861H120.39V86.3786H119.017V78.861Z" fill="black"/>
<path d="M129.663 78.861V86.3786H128.534L124.364 81.2686V86.3786H122.99V78.861H124.119L128.289 83.971V78.861H129.663Z" fill="black"/>
<path d="M135.746 78.861H139.033C139.818 78.861 140.554 79.0084 141.191 79.3523C141.829 79.6471 142.32 80.0893 142.663 80.6789C143.007 81.2686 143.203 81.9073 143.203 82.6443C143.203 83.3813 143.007 84.0692 142.663 84.6097C142.32 85.1993 141.829 85.6415 141.191 85.9363C140.554 86.2312 139.867 86.4277 139.033 86.4277H135.746V78.861ZM138.984 85.1993C139.523 85.1993 140.014 85.1011 140.455 84.9045C140.897 84.708 141.191 84.4132 141.437 84.0201C141.682 83.627 141.78 83.1848 141.78 82.6443C141.78 82.1038 141.682 81.6616 141.437 81.2686C141.191 80.8755 140.897 80.5807 140.455 80.3841C140.014 80.1876 139.572 80.0893 138.984 80.0893H137.169V85.2485H138.984V85.1993Z" fill="black"/>
<path d="M145.165 78.861H146.539V86.3786H145.165V78.861Z" fill="black"/>
<path d="M154.045 86.3786L152.524 84.1675C152.475 84.1675 152.377 84.1675 152.229 84.1675H150.512V86.3786H149.139V78.861H152.229C152.867 78.861 153.456 78.9592 153.946 79.2049C154.437 79.4014 154.78 79.7454 155.075 80.1385C155.32 80.5315 155.467 81.0229 155.467 81.5634C155.467 82.153 155.32 82.5952 155.075 83.0374C154.78 83.4305 154.388 83.7744 153.897 83.971L155.614 86.4277H154.045V86.3786ZM153.554 80.4333C153.26 80.1876 152.769 80.0402 152.18 80.0402H150.561V83.0374H152.18C152.769 83.0374 153.26 82.89 153.554 82.6443C153.848 82.3987 154.045 82.0056 154.045 81.5142C153.995 81.072 153.848 80.6789 153.554 80.4333Z" fill="black"/>
<path d="M161.649 86.2803C161.109 86.1329 160.668 85.8872 160.373 85.6415L160.864 84.5606C161.158 84.8063 161.551 85.0028 161.992 85.1502C162.434 85.2976 162.875 85.3959 163.317 85.3959C163.856 85.3959 164.298 85.2976 164.592 85.1502C164.887 84.9537 164.985 84.7571 164.985 84.4623C164.985 84.2658 164.887 84.0692 164.74 83.9218C164.592 83.7744 164.396 83.6762 164.151 83.5779C163.906 83.4796 163.611 83.4305 163.17 83.3322C162.581 83.1848 162.139 83.0374 161.796 82.9391C161.453 82.8409 161.158 82.5952 160.864 82.3004C160.619 82.0056 160.471 81.6125 160.471 81.1212C160.471 80.7281 160.57 80.335 160.815 79.9911C161.06 79.6471 161.404 79.4014 161.845 79.1558C162.287 78.9592 162.875 78.861 163.513 78.861C163.955 78.861 164.445 78.9101 164.887 79.0575C165.328 79.2049 165.721 79.3523 166.015 79.5488L165.574 80.6298C165.23 80.4333 164.887 80.2859 164.543 80.1876C164.2 80.0893 163.856 80.0402 163.513 80.0402C162.973 80.0402 162.532 80.1385 162.287 80.335C162.041 80.5315 161.894 80.7772 161.894 81.072C161.894 81.2686 161.992 81.4651 162.139 81.6125C162.287 81.7599 162.483 81.8582 162.728 81.9564C162.973 82.0547 163.268 82.1038 163.709 82.2021C164.249 82.3495 164.74 82.4478 165.083 82.5952C165.426 82.7426 165.77 82.9391 166.015 83.2339C166.26 83.5287 166.408 83.9218 166.408 84.4132C166.408 84.8062 166.309 85.1993 166.064 85.5433C165.819 85.8872 165.475 86.1329 165.034 86.3294C164.592 86.526 164.004 86.6242 163.366 86.6242C162.777 86.526 162.188 86.4277 161.649 86.2803Z" fill="black"/>
<path d="M169.743 80.0402H167.241V78.861H173.619V80.0402H171.117V86.3786H169.743V80.0402Z" fill="black"/>
<path d="M180.831 85.2485V86.4277H175.189V78.9102H180.684V80.0894H176.612V82.0548H180.242V83.1849H176.612V85.2485H180.831Z" fill="black"/>
<path d="M184.314 85.9855C183.725 85.6416 183.235 85.1994 182.891 84.6098C182.548 84.0202 182.352 83.3814 182.352 82.5953C182.352 81.8091 182.548 81.1704 182.891 80.5807C183.235 79.9911 183.725 79.5489 184.314 79.205C184.903 78.861 185.589 78.7136 186.374 78.7136C187.012 78.7136 187.552 78.8119 188.042 79.0576C188.533 79.2541 188.975 79.598 189.318 79.9911L188.435 80.8264C187.895 80.2368 187.208 79.942 186.423 79.942C185.884 79.942 185.442 80.0403 185.05 80.2859C184.657 80.5316 184.314 80.8264 184.118 81.2195C183.872 81.6126 183.774 82.0548 183.774 82.5953C183.774 83.0866 183.872 83.5779 184.118 83.971C184.363 84.3641 184.657 84.708 185.05 84.9046C185.442 85.1011 185.933 85.2485 186.423 85.2485C187.208 85.2485 187.895 84.9537 188.435 84.3641L189.318 85.2485C188.975 85.6416 188.533 85.9855 188.042 86.1821C187.552 86.3786 186.963 86.526 186.374 86.526C185.638 86.526 184.952 86.3295 184.314 85.9855Z" fill="black"/>
<path d="M193.831 83.2339L192.654 84.4623V86.3786H191.28V78.861H192.654V82.7426L196.382 78.861H197.952L194.813 82.2512L198.149 86.4277H196.53L193.831 83.2339Z" fill="black"/>
<path d="M201.288 80.0402H198.786V78.861H205.164V80.0402H202.662V86.3786H201.288V80.0402Z" fill="black"/>
<path d="M206.832 86.2312C206.685 86.0838 206.587 85.8872 206.587 85.6415C206.587 85.3959 206.685 85.1993 206.832 85.0519C206.979 84.9045 207.224 84.8063 207.47 84.8063C207.715 84.8063 207.911 84.9045 208.058 85.0519C208.206 85.1993 208.304 85.3959 208.304 85.6415C208.304 85.8872 208.206 86.0838 208.058 86.2312C207.911 86.3786 207.715 86.4768 207.47 86.4768C207.224 86.4768 207.028 86.3786 206.832 86.2312ZM206.685 78.861H208.255L208.009 83.8727H206.93L206.685 78.861Z" fill="black"/>
</g>
<defs>
<clipPath id="clip0_665_25468">
<rect width="208.304" height="88" fill="white"/>
</clipPath>
</defs>
</svg>
